<svg width="25" height="34" viewBox="0 0 25 34" fill="none" xmlns="http://www.w3.org/2000/svg">
<path d="M5.8822 25.3366C4.32781 27.9791 2.98069 30.5179 1.94443 32.7976C1.73718 33.264 1.27086 33.264 1.0118 32.9013C0.390047 32.0723 0.182792 30.5179 1.27086 27.6164C1.58174 26.8392 2.04805 25.8029 2.66981 24.663C1.52993 24.0413 1.11542 23.2641 0.959977 22.9014C0.700913 22.2278 0.804553 22.0206 1.58174 22.1242C2.30712 22.2278 3.0843 22.3314 3.9133 22.3833C7.9547 15.3367 15.1567 5.09076 20.6359 0.58305C21.4649 -0.0905165 21.983 -0.0905252 22.5011 0.634854C23.0193 1.36023 23.1747 1.46386 23.6928 2.75918C24.211 4.00268 24.1592 5.14256 23.6928 6.54151C22.3457 10.6347 20.895 15.9196 19.9105 21.6061C21.4649 22.1242 22.0348 23.1605 22.2421 24.2485C22.3457 24.7148 22.1385 24.8703 21.6721 24.7148C21.0504 24.5594 20.325 24.4558 19.4442 24.404C19.0815 27.0982 18.7706 29.9479 18.667 32.694C18.667 33.2121 18.3561 33.3676 17.8898 33.1603C16.8536 32.694 16.0246 31.3987 15.9727 28.4454C15.9727 27.4091 16.0245 26.062 16.18 24.5076C12.5013 24.7667 8.30444 25.3884 5.8822 25.3366ZM16.5945 21.347C17.3717 15.9585 18.8224 9.44304 20.4286 5.40164C16.4909 9.80573 11.7759 16.0751 7.85109 22.2278C10.9987 21.9688 14.1593 21.3988 16.5945 21.347Z" fill="#001A1A"/>
</svg>
