<svg width="24" height="36" viewBox="0 0 24 36" fill="none" xmlns="http://www.w3.org/2000/svg">
<path d="M14.9616 35.4583C10.6093 35.4583 9.52128 32.2977 11.0757 27.79C12.7855 22.7641 17.2932 17.3756 16.4642 16.9093C15.7388 16.4948 10.0912 20.0181 7.08607 24.9403C5.22081 27.9972 3.30375 31.6241 2.06025 34.7847C1.853 35.251 1.4903 35.3546 1.17942 34.992C0.350414 34.0593 -0.115905 32.6086 0.972163 29.4998C2.78561 24.3185 13.5497 6.09338 17.7465 0.860289C18.2129 0.238535 18.731 0.290339 18.9901 0.912093C19.6636 2.41466 19.5082 5.00531 17.5393 8.26952C16.2958 10.342 13.5497 14.5389 11.3218 18.0103C13.4461 15.9378 16.1404 14.228 17.5393 14.3834C19.3009 14.5907 20.9071 17.1813 19.56 19.8238C18.4201 22.1035 15.9331 25.8859 14.7414 28.5801C13.4461 31.5853 13.7052 34.0205 15.6222 33.9168C17.7465 33.8132 20.5963 30.0827 22.2025 26.7667C22.4097 26.3004 22.9278 26.3004 23.1351 26.7149C23.3941 27.2848 23.3942 28.3729 22.617 29.9273C21.1792 32.8676 18.0186 35.4583 14.9616 35.4583Z" fill="#001A1A"/>
</svg>
