<svg width="18" height="34" viewBox="0 0 18 34" fill="none" xmlns="http://www.w3.org/2000/svg">
<path d="M4.6305 31.8521C7.11752 32.0593 10.7444 28.3288 12.7651 24.3392C13.1278 23.6656 13.6977 23.6138 13.905 24.3392C14.164 25.1682 13.9568 26.3081 13.3869 27.5516C12.6615 29.106 8.87914 33.4064 4.73411 33.3028C1.15903 33.1992 -0.758034 30.7122 0.43366 25.1164C2.35073 16.1009 8.25739 6.7358 13.5293 1.24364C14.3065 0.414635 15.0319 0.311014 15.7573 0.98458C17.2599 2.33171 17.5707 4.24878 16.949 6.68398C15.3428 13.057 9.53975 19.2615 4.94137 22.2667C2.86886 27.3443 2.29893 31.6448 4.6305 31.8521ZM15.1874 5.59591C14.5138 5.18141 10.6796 10.9326 7.10455 17.5517C6.63823 18.3807 6.22374 19.2097 5.86105 20.0387C12.9594 14.3005 15.8609 6.01042 15.1874 5.59591Z" fill="#001A1A"/>
</svg>
