<svg width="18" height="22" viewBox="0 0 18 22" fill="none" xmlns="http://www.w3.org/2000/svg">
<path d="M16.0889 10.176C15.0008 14.5801 11.7366 19.8132 7.90246 21.1085C6.0372 21.7303 3.44657 21.523 1.37406 18.8288C-0.905703 15.8236 -0.128512 11.3159 2.20306 7.17088C4.17195 3.64761 7.33253 0.642477 10.4413 0.435226C12.0475 0.3316 12.9283 0.797916 13.9645 2.19686C15.1562 3.80306 16.7106 4.16574 16.3998 7.89626C16.3479 8.31076 16.3479 8.67345 16.2961 9.08795C16.607 9.08795 16.9179 8.98434 17.3324 8.98434C17.6951 8.98434 17.6951 9.2434 17.4878 9.50246C17.1122 9.91697 16.5941 10.1242 16.0889 10.176ZM11.6848 8.88072C10.5967 8.05171 9.35322 6.23826 9.30141 4.32119C7.90246 5.51288 6.39989 7.22269 5.31182 9.19158C3.13569 13.1294 2.35849 17.8961 3.70562 19.036C5.15638 20.2277 8.31696 18.4143 10.8558 13.6475C11.633 12.1967 12.2547 10.746 12.6692 9.50246C12.3065 9.34703 11.9957 9.13978 11.6848 8.88072ZM13.4464 4.26938C13.1874 2.61137 12.1511 2.92224 11.892 4.42481C11.633 5.82376 12.2029 7.32632 13.0319 8.10352C13.4464 6.49732 13.6019 5.20201 13.4464 4.26938Z" fill="#001A1A"/>
</svg>
