<svg width="24" height="22" viewBox="0 0 24 22" fill="none" xmlns="http://www.w3.org/2000/svg">
<path d="M19.13 0.6425C19.5963 -0.0310659 20.0108 -0.134699 20.3735 0.331617C21.1507 1.26425 21.5652 3.4922 20.3217 6.08284C19.1818 8.41442 16.5911 12.3004 15.3476 15.0465C14.0523 17.948 14.0005 20.1759 15.7621 20.0723C17.8865 19.9687 20.7362 16.4454 22.5496 12.8703C22.8087 12.404 23.1714 12.3522 23.3786 12.8185C23.5859 13.2848 23.5859 14.5801 22.9123 16.0309C21.5652 18.8806 18.301 21.7303 15.4513 21.5749C12.6534 21.4194 11.2026 19.7614 11.2026 17.3262C9.5446 19.4505 7.21303 21.3676 4.72601 21.3676C-0.0925778 21.3676 -1.07703 14.7874 3.22344 8.53099C7.42027 2.41708 11.5135 0.0855026 14.1041 0.0855026C16.3321 0.0855026 17.3683 1.79533 17.2647 3.81603C17.9383 2.55957 18.56 1.47151 19.13 0.6425ZM14.9849 2.76682C13.3269 2.61139 9.54461 5.97921 6.6949 10.5905C3.94883 15.0464 3.27526 19.606 5.29596 19.6578C7.42028 19.7096 10.1145 16.3936 12.757 11.8341C16.0212 6.13466 16.4875 2.92226 14.9849 2.76682Z" fill="#001A1A"/>
</svg>
